<?xml version="1.0" encoding="UTF-8" standalone="no"?>
<svg
   xmlns:dc="http://purl.org/dc/elements/1.1/"
   xmlns:cc="http://creativecommons.org/ns#"
   xmlns:rdf="http://www.w3.org/1999/02/22-rdf-syntax-ns#"
   xmlns:svg="http://www.w3.org/2000/svg"
   xmlns="http://www.w3.org/2000/svg"
   xmlns:sodipodi="http://sodipodi.sourceforge.net/DTD/sodipodi-0.dtd"
   xmlns:inkscape="http://www.inkscape.org/namespaces/inkscape"
   width="100%"
   height="100%"
   viewBox="0 0 1278 673"
   id="svg2"
   version="1.1"
   inkscape:version="0.48.5 r10040"
   sodipodi:docname="pac.svg">
  <metadata
     id="metadata9">
    <rdf:RDF>
      <cc:Work
         rdf:about="">
        <dc:format>image/svg+xml</dc:format>
        <dc:type
           rdf:resource="http://purl.org/dc/dcmitype/StillImage" />
        <dc:title></dc:title>
      </cc:Work>
    </rdf:RDF>
  </metadata>
  <defs
     id="defs7" />
  <sodipodi:namedview
     pagecolor="#ffffff"
     bordercolor="#666666"
     borderopacity="1"
     objecttolerance="10"
     gridtolerance="10"
     guidetolerance="10"
     inkscape:pageopacity="0"
     inkscape:pageshadow="2"
     inkscape:window-width="1101"
     inkscape:window-height="594"
     id="namedview5"
     showgrid="false"
     inkscape:zoom="0.36"
     inkscape:cx="307.08333"
     inkscape:cy="326.60526"
     inkscape:window-x="0"
     inkscape:window-y="0"
     inkscape:window-maximized="0"
     inkscape:current-layer="svg2" />
  <path
     id="Selection"
     fill="none"
     stroke="black"
     stroke-width="1"
     d="M 723.41,55.00            C 723.35,50.59 721.80,49.64 722.44,44.00              723.51,34.56 724.80,36.41 727.91,29.00              730.50,22.86 733.98,13.33 738.10,8.10              744.64,-0.18 755.54,0.00 765.00,0.00              767.51,0.00 772.80,-0.23 774.96,0.60              778.12,1.81 779.27,4.42 782.08,5.98              785.11,7.66 790.12,7.72 795.00,16.00              798.92,16.41 799.68,18.15 803.00,19.02              806.81,20.01 813.51,17.40 815.98,21.31              818.18,24.85 814.28,28.02 815.98,31.02              817.99,34.54 823.82,33.76 826.27,40.04              826.27,40.04 829.44,60.00 829.44,60.00              829.77,61.20 830.26,62.68 830.93,63.73              830.93,63.73 840.27,74.40 840.27,74.40              843.31,76.75 846.78,75.45 852.00,76.76              852.00,76.76 859.00,78.68 859.00,78.68              859.00,78.68 873.00,80.47 873.00,80.47              880.54,82.44 890.68,88.11 895.79,94.00              895.79,94.00 905.95,109.00 905.95,109.00              906.97,111.49 906.56,113.43 908.25,117.01              908.25,117.01 915.42,129.00 915.42,129.00              917.81,133.10 921.33,140.63 926.00,142.00              926.00,142.00 926.00,146.00 926.00,146.00              929.09,148.32 929.33,150.33 930.00,154.00              930.00,154.00 932.00,153.00 932.00,153.00              933.66,157.92 939.57,164.90 942.65,170.00              949.03,180.57 954.05,192.58 954.00,205.00              953.98,209.03 953.34,217.48 951.07,220.78              948.85,223.98 945.17,223.86 944.15,226.30              943.11,228.80 945.90,231.03 945.47,234.72              945.47,234.72 943.05,246.00 943.05,246.00              943.05,246.00 940.83,252.00 940.83,252.00              939.58,257.68 946.63,267.58 951.99,269.00              951.99,269.00 951.99,274.00 951.99,274.00              951.58,276.95 950.06,278.56 948.59,281.00              941.35,293.05 942.45,289.02 935.45,298.00              929.29,305.91 929.76,309.35 919.96,318.91              916.46,322.33 907.61,329.36 905.41,333.09              903.50,336.33 902.16,342.27 900.97,346.00              900.97,346.00 891.43,383.00 891.43,383.00              887.58,395.77 879.45,405.74 880.04,421.00              880.04,421.00 880.99,432.00 880.99,432.00              880.99,432.00 880.04,442.00 880.04,442.00              880.04,442.00 880.04,455.00 880.04,455.00              880.00,460.17 881.19,466.67 878.00,471.00              881.74,476.23 881.99,489.48 882.00,496.00              882.02,505.88 883.79,504.41 883.98,511.00              883.98,511.00 883.11,521.70 883.11,521.70              883.43,522.93 890.10,530.70 887.40,536.72              885.70,540.50 879.44,539.99 876.00,540.00              876.00,540.00 873.63,549.01 873.63,549.01              873.63,549.01 871.20,566.00 871.20,566.00              871.20,566.00 872.00,585.00 872.00,585.00              872.00,587.18 871.78,590.73 873.02,592.57              874.72,595.09 881.09,596.38 884.00,596.86              902.52,599.91 894.65,597.66 910.00,598.01              910.00,598.01 919.00,598.96 919.00,598.96              919.00,598.96 932.00,598.96 932.00,598.96              932.00,598.96 955.00,600.66 955.00,600.66              955.00,600.66 964.00,600.00 964.00,600.00              964.00,600.00 1012.00,600.00 1012.00,600.00              1012.00,600.00 1035.00,597.17 1035.00,597.17              1035.00,597.17 1067.00,596.00 1067.00,596.00              1067.00,596.00 1094.00,599.00 1094.00,599.00              1094.00,599.00 1124.00,599.00 1124.00,599.00              1134.08,598.95 1133.77,596.69 1139.00,596.63              1139.00,596.63 1172.00,598.99 1172.00,598.99              1172.00,598.99 1187.00,597.00 1187.00,597.00              1187.00,597.00 1206.00,597.00 1206.00,597.00              1211.32,597.07 1216.64,598.53 1221.96,597.87              1226.52,597.30 1236.07,591.21 1244.00,591.18              1244.00,591.18 1271.00,595.00 1271.00,595.00              1271.00,595.00 1276.00,595.00 1276.00,595.00              1276.00,595.00 1275.00,590.00 1275.00,590.00              1275.00,590.00 1277.41,591.59 1277.41,591.59              1277.41,591.59 1278.00,610.00 1278.00,610.00              1278.00,610.00 1278.00,673.00 1278.00,673.00              1278.00,673.00 0.00,673.00 0.00,673.00              0.00,673.00 0.00,626.00 0.00,626.00              0.00,626.00 1.00,604.00 1.00,604.00              1.00,604.00 1.00,616.00 1.00,616.00              1.00,616.00 15.00,616.00 15.00,616.00              15.00,616.00 34.00,617.92 34.00,617.92              34.00,617.92 41.00,617.04 41.00,617.04              41.00,617.04 50.00,617.04 50.00,617.04              50.00,617.04 62.00,616.00 62.00,616.00              62.00,616.00 144.00,613.22 144.00,613.22              144.00,613.22 217.42,613.22 217.42,613.22              217.42,613.22 228.00,613.22 228.00,613.22              228.00,613.22 235.00,614.70 235.00,614.70              235.00,614.70 242.00,614.02 242.00,614.02              242.00,614.02 257.00,614.02 257.00,614.02              262.03,613.99 271.68,611.65 275.00,615.00              275.00,615.00 283.00,612.00 283.00,612.00              282.98,611.96 282.87,612.80 283.83,613.26              283.83,613.26 295.99,613.26 295.99,613.26              295.99,613.26 312.00,611.49 312.00,611.49              315.38,611.57 317.18,612.96 325.00,613.00              325.00,613.00 342.00,612.17 342.00,612.17              342.00,612.17 355.00,612.17 355.00,612.17              355.00,612.17 386.00,612.17 386.00,612.17              386.00,612.17 401.00,611.11 401.00,611.11              401.00,611.11 433.00,611.11 433.00,611.11              433.00,611.11 442.28,611.11 442.28,611.11              442.28,611.11 454.00,609.29 454.00,609.29              454.00,609.29 460.00,609.29 460.00,609.29              464.36,608.98 465.16,607.97 470.83,608.10              470.83,608.10 494.50,607.32 494.50,607.32              500.87,607.10 499.91,604.74 507.00,608.00              507.00,608.00 507.00,605.93 507.00,605.93              514.17,608.18 513.51,602.23 517.00,605.93              517.00,605.93 532.00,605.93 532.00,605.93              538.12,605.13 541.92,603.60 548.00,605.93              548.00,605.93 547.00,604.00 547.00,604.00              547.00,604.00 578.00,602.00 578.00,602.00              578.00,602.00 578.00,605.00 578.00,605.00              578.00,605.00 586.00,604.00 586.00,604.00              586.00,604.00 588.00,606.00 588.00,606.00              588.00,606.00 591.00,604.00 591.00,604.00              591.00,604.00 589.00,602.00 589.00,602.00              589.00,602.00 612.00,604.00 612.00,604.00              612.00,604.00 611.00,606.00 611.00,606.00              611.00,606.00 614.00,604.00 614.00,604.00              614.00,604.00 615.00,607.00 615.00,607.00              617.66,605.74 628.14,603.21 631.00,603.18              631.00,603.18 641.00,603.96 641.00,603.96              641.00,603.96 653.00,603.16 653.00,603.16              653.00,603.16 675.00,603.16 675.00,603.16              675.00,603.16 684.00,603.16 684.00,603.16              684.00,603.16 724.00,601.83 724.00,601.83              724.00,601.83 749.72,598.32 749.72,598.32              749.72,598.32 777.00,598.95 777.00,598.95              777.00,598.95 794.00,597.85 794.00,597.85              794.00,597.85 808.91,597.85 808.91,597.85              811.44,597.06 825.70,588.86 828.16,586.84              831.87,583.82 836.23,580.14 836.61,575.00              836.92,570.90 835.53,559.83 833.82,556.00              833.82,556.00 827.07,544.00 827.07,544.00              825.17,539.31 826.68,535.55 825.40,532.00              824.28,528.89 821.83,527.24 820.58,524.00              818.54,518.71 819.38,510.51 818.83,505.00              818.83,505.00 815.01,483.00 815.01,483.00              815.01,483.00 815.95,471.21 815.95,471.21              815.41,468.20 811.98,468.00 810.60,464.79              809.72,462.75 810.03,456.52 810.00,454.00              809.89,445.15 807.33,441.99 806.29,434.00              806.29,434.00 804.83,413.00 804.83,413.00              804.83,413.00 802.00,387.00 802.00,387.00              802.00,387.00 800.00,366.00 800.00,366.00              800.00,366.00 800.00,342.00 800.00,342.00              800.00,342.00 800.80,331.00 800.80,331.00              800.80,331.00 800.80,325.00 800.80,325.00              801.07,321.68 801.96,320.71 801.97,316.00              801.98,309.36 799.76,306.41 799.49,301.00              799.49,301.00 799.49,291.39 799.49,291.39              799.49,291.39 800.09,283.00 800.09,283.00              800.09,283.00 795.00,259.00 795.00,259.00              789.00,269.41 794.02,270.70 790.49,284.00              788.74,290.58 784.38,295.90 781.92,302.00              780.80,304.77 781.10,307.13 780.48,310.00              780.48,310.00 777.78,317.83 777.78,317.83              775.71,323.62 780.82,333.48 772.00,335.00              772.00,335.00 772.00,337.00 772.00,337.00              772.00,337.00 785.00,332.00 785.00,332.00              784.94,333.60 785.03,335.31 784.40,336.82              781.50,343.75 770.86,346.86 764.30,343.56              760.62,341.71 758.29,335.76 757.09,332.00              754.54,323.99 757.50,320.32 758.00,316.42              758.00,316.42 758.00,294.00 758.00,294.00              757.89,285.32 755.72,281.71 758.00,272.01              759.56,266.32 762.32,266.72 763.00,260.00              763.00,260.00 763.00,251.00 763.00,251.00              763.00,251.00 764.00,233.00 764.00,233.00              764.00,233.00 763.37,222.00 763.37,222.00              763.92,217.82 769.99,206.11 769.74,198.00              769.61,193.97 767.96,192.16 766.98,188.83              766.98,188.83 765.52,182.00 765.52,182.00              765.52,182.00 760.90,169.00 760.90,169.00              759.52,164.38 760.41,162.59 759.53,159.00              759.53,159.00 755.38,148.00 755.38,148.00              753.76,140.79 754.44,137.85 754.57,131.00              754.57,131.00 754.57,124.00 754.57,124.00              754.41,118.27 757.42,111.03 760.00,106.00              754.26,105.17 754.59,105.16 750.42,101.43              742.18,94.06 745.61,94.66 740.32,87.00              736.88,82.04 732.97,79.79 729.13,75.83              725.64,72.23 726.45,71.21 722.00,67.00              722.00,67.00 723.41,55.00 723.41,55.00 Z            M 764.00,186.00            C 764.00,186.00 763.00,187.00 763.00,187.00              763.00,187.00 763.00,186.00 763.00,186.00              763.00,186.00 764.00,186.00 764.00,186.00 Z            M 947.00,230.00            C 947.00,230.00 946.00,231.00 946.00,231.00              946.00,231.00 946.00,230.00 946.00,230.00              946.00,230.00 947.00,230.00 947.00,230.00 Z            M 800.00,303.00            C 800.00,303.00 801.00,304.00 801.00,304.00              801.00,304.00 801.00,303.00 801.00,303.00              801.00,303.00 800.00,303.00 800.00,303.00 Z            M 800.00,332.00            C 800.00,332.00 799.00,333.00 799.00,333.00              799.00,333.00 799.00,332.00 799.00,332.00              799.00,332.00 800.00,332.00 800.00,332.00 Z            M 791.00,599.00            C 791.00,599.00 792.00,600.00 792.00,600.00              792.00,600.00 792.00,599.00 792.00,599.00              792.00,599.00 791.00,599.00 791.00,599.00 Z"
     style="fill-rule:nonzero;fill:#000000;stroke:none" />
</svg>
