<?xml version="1.0" encoding="UTF-8" standalone="no"?>
<svg
   xmlns:dc="http://purl.org/dc/elements/1.1/"
   xmlns:cc="http://creativecommons.org/ns#"
   xmlns:rdf="http://www.w3.org/1999/02/22-rdf-syntax-ns#"
   xmlns:svg="http://www.w3.org/2000/svg"
   xmlns="http://www.w3.org/2000/svg"
   xmlns:sodipodi="http://sodipodi.sourceforge.net/DTD/sodipodi-0.dtd"
   xmlns:inkscape="http://www.inkscape.org/namespaces/inkscape"
   width="17.75in"
   height="9.34722in"
   viewBox="0 0 1278 673"
   id="svg2"
   version="1.1"
   inkscape:version="0.48.5 r10040"
   sodipodi:docname="work_mask.svg">
  <metadata
     id="metadata9">
    <rdf:RDF>
      <cc:Work
         rdf:about="">
        <dc:format>image/svg+xml</dc:format>
        <dc:type
           rdf:resource="http://purl.org/dc/dcmitype/StillImage" />
      </cc:Work>
    </rdf:RDF>
  </metadata>
  <defs
     id="defs7" />
  <sodipodi:namedview
     pagecolor="#ffffff"
     bordercolor="#666666"
     borderopacity="1"
     objecttolerance="10"
     gridtolerance="10"
     guidetolerance="10"
     inkscape:pageopacity="0"
     inkscape:pageshadow="2"
     inkscape:window-width="962"
     inkscape:window-height="537"
     id="namedview5"
     showgrid="false"
     inkscape:zoom="0.20532081"
     inkscape:cx="798.75"
     inkscape:cy="420.62491"
     inkscape:window-x="140"
     inkscape:window-y="43"
     inkscape:window-maximized="0"
     inkscape:current-layer="svg2" />
  <path
     id="Selection"
     fill="none"
     stroke="black"
     stroke-width="1"
     d="M 1278.00,0.00            C 1278.00,0.00 1278.00,450.00 1278.00,450.00              1278.00,450.00 1278.00,556.00 1278.00,556.00              1278.00,556.00 1278.00,583.00 1278.00,583.00              1277.97,586.65 1278.64,588.49 1275.00,590.00              1275.00,590.00 1276.00,595.00 1276.00,595.00              1276.00,595.00 1270.00,595.00 1270.00,595.00              1270.00,595.00 1244.00,591.34 1244.00,591.34              1237.23,591.41 1227.10,597.15 1223.83,597.76              1218.70,598.72 1213.08,597.44 1208.00,597.04              1208.00,597.04 1190.00,597.04 1190.00,597.04              1190.00,597.04 1169.00,599.00 1169.00,599.00              1169.00,599.00 1139.00,596.95 1139.00,596.95              1133.89,597.29 1133.99,598.90 1126.00,599.00              1126.00,599.00 1093.00,599.00 1093.00,599.00              1093.00,599.00 1066.00,596.00 1066.00,596.00              1066.00,596.00 1036.00,597.17 1036.00,597.17              1036.00,597.17 1013.00,600.00 1013.00,600.00              1013.00,600.00 967.00,600.00 967.00,600.00              967.00,600.00 955.00,600.82 955.00,600.82              955.00,600.82 948.00,600.09 948.00,600.09              948.00,600.09 923.00,599.00 923.00,599.00              923.00,599.00 907.00,598.04 907.00,598.04              893.68,598.46 900.62,599.75 886.00,597.28              882.67,596.72 874.19,595.84 872.57,592.57              871.92,591.24 872.01,588.51 871.96,587.00              871.96,587.00 871.96,576.00 871.96,576.00              871.66,572.30 870.82,569.99 871.10,566.00              871.10,566.00 872.68,558.00 872.68,558.00              872.68,558.00 873.44,549.01 873.44,549.01              873.44,549.01 876.00,540.00 876.00,540.00              879.78,539.97 885.74,540.21 887.36,535.87              889.69,529.63 882.64,524.05 882.51,520.83              882.42,518.64 883.96,516.65 883.96,512.00              883.96,506.32 882.05,506.42 882.00,498.00              881.95,490.28 881.78,477.78 878.00,471.00              880.92,465.46 880.00,459.14 880.04,453.00              880.04,453.00 880.04,441.00 880.04,441.00              880.04,441.00 880.97,432.00 880.97,432.00              880.97,432.00 880.01,421.00 880.01,421.00              879.64,404.49 886.47,396.99 891.11,383.00              891.11,383.00 898.59,352.00 898.59,352.00              898.59,352.00 905.41,332.17 905.41,332.17              907.46,328.83 917.49,320.57 920.91,316.99              930.86,306.56 929.35,304.82 935.45,297.00              942.41,288.08 941.37,291.86 948.59,280.01              949.28,278.88 951.00,276.55 951.33,275.42              952.19,272.52 949.66,270.06 948.00,268.00              945.17,264.48 940.22,258.68 940.29,254.00              940.29,254.00 945.05,234.72 945.05,234.72              945.40,230.83 942.37,228.93 943.32,226.30              944.27,223.65 948.46,223.97 951.07,219.89              953.82,215.59 954.38,204.12 953.83,199.00              952.94,190.72 945.33,175.15 940.78,168.00              937.70,163.15 933.21,158.67 932.00,153.00              932.00,153.00 930.00,154.00 930.00,154.00              930.00,154.00 926.00,146.00 926.00,146.00              926.00,146.00 926.00,142.00 926.00,142.00              920.43,140.78 917.51,133.61 914.85,129.00              914.85,129.00 908.24,118.00 908.24,118.00              908.24,118.00 905.46,109.09 905.46,109.09              904.56,107.02 896.55,95.81 894.90,94.00              886.91,85.29 875.52,80.71 864.00,79.28              864.00,79.28 857.00,78.48 857.00,78.48              857.00,78.48 848.00,76.18 848.00,76.18              845.08,75.82 841.90,76.44 839.49,74.40              839.49,74.40 835.76,69.34 835.76,69.34              832.14,64.96 830.35,66.13 828.80,59.00              828.80,59.00 826.27,41.01 826.27,41.01              823.72,34.31 817.67,34.52 815.87,31.69              813.77,28.40 817.46,25.53 815.87,22.15              813.52,17.15 806.76,20.19 803.00,19.42              799.83,18.76 798.27,16.53 795.00,16.00              795.00,16.00 786.68,8.01 786.68,8.01              782.43,5.46 781.72,8.89 776.00,0.00              776.00,0.00 1278.00,0.00 1278.00,0.00 Z            M 946.00,230.00            C 946.00,230.00 947.00,231.00 947.00,231.00              947.00,231.00 947.00,230.00 947.00,230.00              947.00,230.00 946.00,230.00 946.00,230.00 Z            M 951.00,269.00            C 951.00,269.00 952.00,270.00 952.00,270.00              952.00,270.00 952.00,269.00 952.00,269.00              952.00,269.00 951.00,269.00 951.00,269.00 Z"
     style="fill:#000000;stroke:#000000;stroke-opacity:1" />
</svg>
